<?xml version="1.0" encoding="UTF-8"?>
<!-- Created with Inkscape (http://www.inkscape.org/) -->
<svg width="75px" height="20px" version="1.1" viewBox="0 0 62.507 18.521" xmlns="http://www.w3.org/2000/svg" xmlns:cc="http://creativecommons.org/ns#" xmlns:dc="http://purl.org/dc/elements/1.1/" xmlns:rdf="http://www.w3.org/1999/02/22-rdf-syntax-ns#">
 <metadata>
  <rdf:RDF>
   <cc:Work rdf:about="">
    <dc:format>image/svg+xml</dc:format>
    <dc:type rdf:resource="http://purl.org/dc/dcmitype/StillImage"/>
    <dc:title/>
   </cc:Work>
  </rdf:RDF>
 </metadata>
 <g transform="translate(-58.345 -117.81)">
  <g transform="scale(1.0042 .99579)" fill="#2962ff" stroke-width=".26347" style="font-feature-settings:normal;font-variant-caps:normal;font-variant-ligatures:normal;font-variant-numeric:normal" aria-label="AIICY">
   <path d="m65.616 121.02-3.29 8.9213h6.5919zm-1.3688-2.3894h2.7496l6.8321 17.927h-2.5215l-1.633-4.5987h-8.0808l-1.633 4.5987h-2.5575z" style="font-feature-settings:normal;font-variant-caps:normal;font-variant-ligatures:normal;font-variant-numeric:normal"/>
   <path d="m76.446 118.63h2.4254v17.927h-2.4254z" style="font-feature-settings:normal;font-variant-caps:normal;font-variant-ligatures:normal;font-variant-numeric:normal"/>
   <path d="m83.699 118.63h2.4254v17.927h-2.4254z" style="font-feature-settings:normal;font-variant-caps:normal;font-variant-ligatures:normal;font-variant-numeric:normal"/>
   <path d="m104.37 120.01v2.5575q-1.2247-1.1407-2.6176-1.705-1.3808-0.56433-2.9417-0.56433-3.0738 0-4.7068 1.8851-1.633 1.8731-1.633 5.4272 0 3.5421 1.633 5.4272 1.633 1.8731 4.7068 1.8731 1.5609 0 2.9417-0.56433 1.3928-0.56434 2.6176-1.705v2.5335q-1.2728 0.86451-2.7016 1.2968-1.4168 0.43226-3.0018 0.43226-4.0704 0-6.4118-2.4855-2.3414-2.4975-2.3414-6.808 0-4.3226 2.3414-6.808 2.3414-2.4975 6.4118-2.4975 1.609 0 3.0258 0.43226 1.4288 0.42025 2.6776 1.2728z" style="font-feature-settings:normal;font-variant-caps:normal;font-variant-ligatures:normal;font-variant-numeric:normal"/>
   <path d="m105.23 118.63h2.6056l4.971 7.3724 4.9349-7.3724h2.6056l-6.3398 9.3896v8.5371h-2.4374v-8.5371z" style="font-feature-settings:normal;font-variant-caps:normal;font-variant-ligatures:normal;font-variant-numeric:normal"/>
  </g>
 </g>
</svg>
